<svg width="20" height="20" viewBox="0 0 20 20" fill="none" xmlns="http://www.w3.org/2000/svg">
<g clip-path="url(#clip0_1_2781)">
<g clip-path="url(#clip1_1_2781)">
<path d="M17.8705 14.8704C17.5961 15.5153 17.2559 16.1301 16.8551 16.7051C16.476 17.2827 16.034 17.8164 15.537 18.2963C15.0901 18.7555 14.4899 19.0345 13.8508 19.0801C13.3135 19.053 12.786 18.9262 12.2951 18.706C11.7645 18.4729 11.1941 18.3439 10.6148 18.326C10.0217 18.3404 9.437 18.4694 8.89295 18.706C8.42059 18.9114 7.92034 19.0455 7.40858 19.1038C7.08406 19.0978 6.76403 19.0269 6.46731 18.8954C6.17058 18.7638 5.90316 18.5743 5.68076 18.3379C5.16698 17.8438 4.7072 17.2964 4.3092 16.7051C3.68327 15.8064 3.18939 14.8227 2.84264 13.7838C2.45359 12.6751 2.2529 11.5091 2.24889 10.3341C2.2145 9.18321 2.49801 8.04508 3.06826 7.04477C3.47745 6.32392 4.06815 5.7227 4.78165 5.30084C5.49516 4.87899 6.30664 4.65119 7.13545 4.64008C7.74857 4.68019 8.35064 4.82268 8.9167 5.06164C9.37362 5.26297 9.85455 5.40466 10.3476 5.4832C10.8923 5.36921 11.4251 5.20421 11.9389 4.99039C12.6325 4.71147 13.3767 4.58004 14.1239 4.60445C14.8291 4.62456 15.5202 4.80632 16.1441 5.13574C16.7679 5.46516 17.3077 5.93343 17.722 6.50445C17.0646 6.85232 16.5174 7.37674 16.1419 8.01871C15.7663 8.66068 15.5774 9.39471 15.5964 10.1382C15.5939 10.7027 15.7094 11.2616 15.9353 11.7789C16.1613 12.2962 16.4928 12.7607 16.9086 13.1426C17.2933 13.5043 17.7371 13.7975 18.2208 14.0095C18.0961 14.2885 17.9892 14.6032 17.8705 14.8526V14.8704ZM14.2011 0.454141C14.1876 1.43725 13.8185 2.38221 13.162 3.11414C12.8216 3.57847 12.3736 3.95336 11.8566 4.20671C11.3396 4.46005 10.7688 4.58431 10.1933 4.56883C10.187 4.44818 10.187 4.32729 10.1933 4.20664C10.227 3.20842 10.619 2.25572 11.2976 1.52289C11.6727 1.10235 12.1266 0.759422 12.6336 0.513516C13.1093 0.266058 13.6306 0.118553 14.1655 0.0800781C14.1944 0.202553 14.2063 0.328411 14.2011 0.454141Z" fill="black"/>
</g>
</g>
<defs>
<clipPath id="clip0_1_2781">
<rect width="19" height="19" fill="white" transform="translate(0.734863 0.0800781)"/>
</clipPath>
<clipPath id="clip1_1_2781">
<rect width="19" height="19" fill="white" transform="translate(0.734863 0.0800781)"/>
</clipPath>
</defs>
</svg>
