<svg width="24" height="24" viewBox="0 0 24 24" fill="none" xmlns="http://www.w3.org/2000/svg">
<path d="M17 7C17 5.67392 16.4732 4.40215 15.5355 3.46447C14.5979 2.52678 13.3261 2 12 2H7C5.67392 2 4.40215 2.52678 3.46447 3.46447C2.52678 4.40215 2 5.67392 2 7V12C2 13.3261 2.52678 14.5979 3.46447 15.5355C4.40215 16.4732 5.67392 17 7 17C7 17.6566 7.12933 18.3068 7.3806 18.9134C7.63188 19.52 8.00017 20.0712 8.46447 20.5355C9.40215 21.4732 10.6739 22 12 22H17C17.6566 22 18.3068 21.8707 18.9134 21.6194C19.52 21.3681 20.0712 20.9998 20.5355 20.5355C20.9998 20.0712 21.3681 19.52 21.6194 18.9134C21.8707 18.3068 22 17.6566 22 17V12C22 10.6739 21.4732 9.40215 20.5355 8.46447C19.5979 7.52678 18.3261 7 17 7ZM7 12V15C6.20435 15 5.44129 14.6839 4.87868 14.1213C4.31607 13.5587 4 12.7956 4 12V7C4 6.20435 4.31607 5.44129 4.87868 4.87868C5.44129 4.31607 6.20435 4 7 4H12C12.7956 4 13.5587 4.31607 14.1213 4.87868C14.6839 5.44129 15 6.20435 15 7H12C10.6739 7 9.40215 7.52678 8.46447 8.46447C7.52678 9.40215 7 10.6739 7 12ZM20 17C20 17.7956 19.6839 18.5587 19.1213 19.1213C18.5587 19.6839 17.7957 20 17 20H12C11.2044 20 10.4413 19.6839 9.87868 19.1213C9.31607 18.5587 9 17.7956 9 17V12C9 11.2044 9.31607 10.4413 9.87868 9.87868C10.4413 9.31607 11.2044 9 12 9H17C17.7957 9 18.5587 9.31607 19.1213 9.87868C19.6839 10.4413 20 11.2044 20 12V17Z" fill="white"/>
</svg>
