<svg width="135" height="64" viewBox="0 0 135 64" fill="none" xmlns="http://www.w3.org/2000/svg">
<path d="M2.31956 56V39.44H5.77556V45.992L11.6316 39.44H14.8716L15.2076 40.136L9.71156 46.256L15.8076 55.304L15.4956 56H12.3036L7.47956 48.752L5.77556 50.6V56H2.31956ZM18.4446 56V39.44H26.5086C29.1966 39.44 30.5406 40.784 30.5406 43.472V46.208C30.5406 48.208 29.7966 49.456 28.3086 49.952L31.0206 55.28L30.6126 56H27.6366L24.7086 50.24H21.9006V56H18.4446ZM21.9006 47.12H26.3646C26.8446 47.12 27.0846 46.88 27.0846 46.4V43.28C27.0846 42.8 26.8446 42.56 26.3646 42.56H21.9006V47.12ZM32.7111 40.088L33.1911 39.44H36.0231L38.6871 52.88H38.9511L41.8071 41.024H45.2151L48.0711 52.88H48.3351L50.9991 39.44H53.8311L54.3111 40.088L51.0711 56H45.5751L43.5111 47.24L41.4471 56H35.9511L32.7111 40.088ZM55.5604 42.56V39.44H69.0964V42.56H64.0564V56H60.6004V42.56H55.5604ZM71.4077 51.968V43.472C71.4077 40.784 72.7517 39.44 75.4397 39.44H80.9117C83.5997 39.44 84.9437 40.784 84.9437 43.472V51.968C84.9437 54.656 83.5997 56 80.9117 56H75.4397C72.7517 56 71.4077 54.656 71.4077 51.968ZM74.8637 52.16C74.8637 52.64 75.1037 52.88 75.5837 52.88H80.7677C81.2477 52.88 81.4877 52.64 81.4877 52.16V43.28C81.4877 42.8 81.2477 42.56 80.7677 42.56H75.5837C75.1037 42.56 74.8637 42.8 74.8637 43.28V52.16ZM88.6399 56V39.44H92.0959V45.992L97.9519 39.44H101.192L101.528 40.136L96.0319 46.256L102.128 55.304L101.816 56H98.6239L93.7999 48.752L92.0959 50.6V56H88.6399ZM104.765 56V39.44H116.093V42.56H108.221V45.92H115.373V49.04H108.221V52.88H116.093V56H104.765ZM119.249 56V39.44H122.993L129.569 50.312V39.44H133.025V56H129.281L122.705 45.128V56H119.249Z" fill="white"/>
<g clip-path="url(#clip0_216_2109)">
<path d="M5.17204 11.621V0.128662H14.0238V8.98044L16.6146 6.60557H29.1366L24.171 11.5712H29.5683V13.5143H22.2279L20.2848 15.2414H29.5683V17.4004H22.2279L29.7844 25.8203H18.3418L14.0238 21.7184V25.8203H5.17204V17.4004H0.206421V15.2414H5.17204V13.5143H0.206421V11.621H5.17204Z" fill="white"/>
</g>
<defs>
<clipPath id="clip0_216_2109">
<rect width="30" height="25.9398" fill="white"/>
</clipPath>
</defs>
</svg>
