<svg width="19" height="21" viewBox="0 0 19 21" fill="none" xmlns="http://www.w3.org/2000/svg">
<path d="M0.5743 1.61075C0.359293 1.83019 0.234863 2.17185 0.234863 2.61431V18.3965C0.234863 18.839 0.359293 19.1806 0.5743 19.4001L0.627366 19.4482L9.69794 10.608V10.3993L0.627366 1.55901L0.5743 1.61075Z" fill="black"/>
<path d="M13.8156 13.5557L10.7954 10.6074V10.3987L13.8192 7.45045L13.8869 7.48881L17.468 9.47541C18.4899 10.0392 18.4899 10.9669 17.468 11.5343L13.8869 13.5173L13.8156 13.5557Z" fill="black"/>
<path d="M13.3387 14.0664L10.2472 11.0522L1.12354 19.9486C1.46297 20.2965 2.0165 20.3384 2.64597 19.9905L13.3387 14.0664Z" fill="black"/>
<path d="M13.3387 6.93986L2.64597 1.01573C2.0165 0.671401 1.46297 0.713326 1.12354 1.06123L10.2472 9.9541L13.3387 6.93986Z" fill="black"/>
</svg>
