<svg width="53" height="16" viewBox="0 0 53 16" fill="none" xmlns="http://www.w3.org/2000/svg">
<g clip-path="url(#clip0_214_912)">
<path d="M44.9 0.25H7.47C3.4825 0.25 0.25 3.4825 0.25 7.47V7.77C0.25 11.7575 3.4825 14.99 7.47 14.99H44.9C48.8875 14.99 52.12 11.7575 52.12 7.77V7.47C52.12 3.4825 48.8875 0.25 44.9 0.25Z" fill="#F4DFC4" stroke="#231E20" stroke-width="0.5" stroke-miterlimit="10"/>
<path d="M13.62 10.5297C13.627 10.6 13.6192 10.6709 13.5974 10.7379C13.5755 10.805 13.5399 10.8668 13.4929 10.9195C13.4459 10.9721 13.3885 11.0144 13.3243 11.0437C13.2602 11.073 13.1906 11.0887 13.12 11.0897H9.83003C9.759 11.0903 9.68868 11.0756 9.62374 11.0468C9.55881 11.018 9.50076 10.9757 9.45345 10.9228C9.40614 10.8698 9.37066 10.8073 9.34938 10.7396C9.3281 10.6718 9.32151 10.6003 9.33003 10.5297V4.52974C9.32593 4.4616 9.33584 4.39334 9.35912 4.32917C9.38241 4.265 9.41859 4.20628 9.46543 4.15663C9.51228 4.10697 9.56879 4.06744 9.6315 4.04046C9.6942 4.01347 9.76177 3.99962 9.83003 3.99974H10.83C10.9019 3.99778 10.9733 4.01134 11.0395 4.03949C11.1056 4.06765 11.1649 4.10974 11.2133 4.16289C11.2617 4.21604 11.2981 4.27901 11.32 4.34749C11.3418 4.41598 11.3487 4.48837 11.34 4.55974V5.73974H11.58V4.54974C11.5715 4.47922 11.5781 4.4077 11.5994 4.33993C11.6207 4.27216 11.6561 4.2097 11.7034 4.15672C11.7508 4.10373 11.8088 4.06144 11.8737 4.03264C11.9387 4.00385 12.009 3.98923 12.08 3.98974H13.08C13.1511 3.98923 13.2214 4.00385 13.2863 4.03264C13.3513 4.06144 13.4093 4.10373 13.4566 4.15672C13.5039 4.2097 13.5394 4.27216 13.5607 4.33993C13.582 4.4077 13.5886 4.47922 13.58 4.54974L13.62 10.5297ZM11.62 9.22974C11.7001 8.6592 11.7001 8.08028 11.62 7.50974H11.38C11.4601 8.08028 11.4601 8.6592 11.38 9.22974H11.62ZM15.88 10.5297C15.887 10.6 15.8792 10.6709 15.8574 10.7379C15.8355 10.805 15.7999 10.8668 15.7529 10.9195C15.7059 10.9721 15.6485 11.0144 15.5843 11.0437C15.5202 11.073 15.4506 11.0887 15.38 11.0897H14.38C14.3095 11.0887 14.2399 11.073 14.1757 11.0437C14.1115 11.0144 14.0541 10.9721 14.0071 10.9195C13.9601 10.8668 13.9246 10.805 13.9027 10.7379C13.8808 10.6709 13.8731 10.6 13.88 10.5297V4.52974C13.8715 4.45922 13.8781 4.3877 13.8994 4.31993C13.9207 4.25216 13.9561 4.1897 14.0034 4.13672C14.0508 4.08373 14.1088 4.04144 14.1737 4.01264C14.2387 3.98385 14.309 3.96923 14.38 3.96974H15.38C15.4511 3.96923 15.5214 3.98385 15.5863 4.01264C15.6513 4.04144 15.7093 4.08373 15.7566 4.13672C15.8039 4.1897 15.8394 4.25216 15.8607 4.31993C15.882 4.3877 15.8886 4.45922 15.88 4.52974V6.15974C15.88 6.48974 16.37 6.46974 16.37 6.80974V7.99974C16.37 8.32974 15.88 8.31974 15.88 8.64974V10.5297Z" fill="black"/>
<path d="M23.34 10.5304C23.347 10.6015 23.339 10.6732 23.3165 10.741C23.294 10.8087 23.2576 10.871 23.2095 10.9238C23.1614 10.9766 23.1028 11.0187 23.0374 11.0474C22.9721 11.0761 22.9014 11.0908 22.83 11.0904H17.14C17.0694 11.0894 16.9999 11.0737 16.9357 11.0444C16.8715 11.0151 16.8141 10.9728 16.7671 10.9201C16.7201 10.8675 16.6845 10.8057 16.6627 10.7386C16.6408 10.6715 16.6331 10.6006 16.64 10.5304V9.79042C16.6331 9.7202 16.6408 9.64931 16.6627 9.58223C16.6845 9.51514 16.7201 9.45333 16.7671 9.4007C16.8141 9.34806 16.8715 9.30575 16.9357 9.27644C16.9999 9.24714 17.0694 9.23146 17.14 9.23042H18.65V8.94042H17.14C17.0694 8.93938 16.9999 8.92371 16.9357 8.8944C16.8715 8.86509 16.8141 8.82278 16.7671 8.77014C16.7201 8.71751 16.6845 8.6557 16.6627 8.58862C16.6408 8.52153 16.6331 8.45064 16.64 8.38042V6.38042C16.626 6.236 16.6697 6.0919 16.7614 5.97952C16.8532 5.86714 16.9857 5.79557 17.13 5.78042C18.3633 5.65112 19.6067 5.65112 20.84 5.78042V5.56042C19.6067 5.43112 18.3633 5.43112 17.13 5.56042C17.0572 5.56931 16.9833 5.56025 16.9147 5.53404C16.8462 5.50784 16.7851 5.46527 16.7368 5.41006C16.6885 5.35485 16.6544 5.28866 16.6376 5.21726C16.6207 5.14586 16.6215 5.07142 16.64 5.00042V4.55042C16.6315 4.4799 16.6381 4.40838 16.6593 4.34061C16.6806 4.27284 16.7161 4.21038 16.7634 4.1574C16.8107 4.10441 16.8688 4.06212 16.9337 4.03333C16.9986 4.00453 17.069 3.98991 17.14 3.99042H22.83C22.9019 3.98846 22.9733 4.00202 23.0394 4.03017C23.1056 4.05833 23.1649 4.10042 23.2133 4.15357C23.2617 4.20672 23.2981 4.26969 23.3199 4.33817C23.3418 4.40666 23.3486 4.47905 23.34 4.55042V6.55042C23.354 6.69749 23.3092 6.84412 23.2156 6.95838C23.1219 7.07263 22.9869 7.14525 22.84 7.16042C21.6064 7.28473 20.3635 7.28473 19.13 7.16042V7.40042C20.3635 7.52473 21.6064 7.52473 22.84 7.40042C23.14 7.40042 23.34 7.57042 23.34 7.91042V8.36042C23.347 8.43147 23.339 8.50321 23.3165 8.57098C23.294 8.63874 23.2576 8.70104 23.2095 8.75382C23.1614 8.80661 23.1028 8.84872 23.0374 8.87742C22.9721 8.90611 22.9014 8.92076 22.83 8.92042H21.32V9.21042H22.83C22.9014 9.21008 22.9721 9.22473 23.0374 9.25343C23.1028 9.28212 23.1614 9.32423 23.2095 9.37702C23.2576 9.4298 23.294 9.4921 23.3165 9.55987C23.339 9.62763 23.347 9.69937 23.34 9.77042V10.5304Z" fill="black"/>
<path d="M23.8801 10.53V9.40997C23.8779 9.25661 23.924 9.10645 24.012 8.98079C24.0999 8.85514 24.2252 8.76038 24.3701 8.70997C25.2401 8.34997 25.6901 7.50997 25.6901 6.07997H24.3801C24.309 6.08049 24.2387 6.06586 24.1738 6.03707C24.1089 6.00828 24.0508 5.96598 24.0035 5.913C23.9562 5.86001 23.9207 5.79755 23.8994 5.72979C23.8782 5.66202 23.8716 5.59049 23.8801 5.51997V4.51997C23.8716 4.44946 23.8782 4.37793 23.8994 4.31016C23.9207 4.24239 23.9562 4.17994 24.0035 4.12695C24.0508 4.07397 24.1089 4.03167 24.1738 4.00288C24.2387 3.97409 24.309 3.95946 24.3801 3.95997H27.5101C27.5811 3.95946 27.6514 3.97409 27.7164 4.00288C27.7813 4.03167 27.8394 4.07397 27.8867 4.12695C27.934 4.17994 27.9694 4.24239 27.9907 4.31016C28.012 4.37793 28.0186 4.44946 28.0101 4.51997V5.89997C28.0101 8.65997 26.8601 10.64 24.3701 11.03C24.0801 11.08 23.8801 10.87 23.8801 10.53ZM30.4701 10.53C30.477 10.6002 30.4693 10.6711 30.4474 10.7382C30.4255 10.8053 30.39 10.8671 30.343 10.9197C30.296 10.9723 30.2386 11.0146 30.1744 11.0439C30.1102 11.0733 30.0406 11.0889 29.9701 11.09H28.7001C28.6287 11.0903 28.558 11.0757 28.4926 11.047C28.4273 11.0183 28.3686 10.9762 28.3206 10.9234C28.2725 10.8706 28.236 10.8083 28.2136 10.7405C28.1911 10.6728 28.1831 10.601 28.1901 10.53V4.52997C28.1859 4.46098 28.1961 4.39188 28.22 4.32702C28.2439 4.26217 28.281 4.20297 28.3289 4.15316C28.3768 4.10336 28.4345 4.06403 28.4984 4.03767C28.5623 4.0113 28.631 3.99847 28.7001 3.99997H30.0001C30.0711 3.99946 30.1414 4.01409 30.2064 4.04288C30.2713 4.07167 30.3294 4.11397 30.3767 4.16695C30.424 4.21994 30.4594 4.28239 30.4807 4.35016C30.502 4.41793 30.5086 4.48946 30.5001 4.55997V6.15997C30.5001 6.48997 31.0001 6.46997 31.0001 6.80997V7.99997C31.0001 8.32997 30.5001 8.31997 30.5001 8.64997L30.4701 10.53Z" fill="black"/>
<path d="M31.1901 10.53V9.40997C31.1894 9.25695 31.2361 9.10747 31.3239 8.98211C31.4117 8.85674 31.5361 8.76167 31.6801 8.70997C32.1628 8.47735 32.5587 8.09696 32.8104 7.62403C33.0622 7.1511 33.1567 6.61024 33.0801 6.07997H31.6901C31.6191 6.08049 31.5488 6.06586 31.4839 6.03707C31.4189 6.00828 31.3609 5.96598 31.3136 5.913C31.2662 5.86001 31.2308 5.79755 31.2095 5.72979C31.1882 5.66202 31.1816 5.59049 31.1901 5.51997V4.51997C31.1816 4.44946 31.1882 4.37793 31.2095 4.31016C31.2308 4.24239 31.2662 4.17994 31.3136 4.12695C31.3609 4.07397 31.4189 4.03167 31.4839 4.00288C31.5488 3.97409 31.6191 3.95946 31.6901 3.95997H34.8901C34.9612 3.95946 35.0315 3.97409 35.0964 4.00288C35.1614 4.03167 35.2194 4.07397 35.2667 4.12695C35.314 4.17994 35.3495 4.24239 35.3708 4.31016C35.3921 4.37793 35.3987 4.44946 35.3901 4.51997V5.89997C35.3901 8.65997 34.1801 10.64 31.6801 11.03C31.4001 11.08 31.1901 10.87 31.1901 10.53ZM37.9601 10.53C37.9671 10.6002 37.9593 10.6711 37.9375 10.7382C37.9156 10.8053 37.88 10.8671 37.833 10.9197C37.786 10.9723 37.7286 11.0146 37.6644 11.0439C37.6003 11.0733 37.5307 11.0889 37.4601 11.09H36.0801C36.0096 11.0889 35.94 11.0733 35.8758 11.0439C35.8116 11.0146 35.7542 10.9723 35.7072 10.9197C35.6603 10.8671 35.6247 10.8053 35.6028 10.7382C35.5809 10.6711 35.5732 10.6002 35.5801 10.53V4.52997C35.5716 4.45946 35.5782 4.38793 35.5995 4.32016C35.6208 4.25239 35.6562 4.18994 35.7036 4.13695C35.7509 4.08397 35.8089 4.04167 35.8739 4.01288C35.9388 3.98409 36.0091 3.96946 36.0801 3.96997H37.4601C37.5312 3.96946 37.6015 3.98409 37.6664 4.01288C37.7314 4.04167 37.7894 4.08397 37.8367 4.13695C37.884 4.18994 37.9195 4.25239 37.9408 4.32016C37.9621 4.38793 37.9687 4.45946 37.9601 4.52997V10.53Z" fill="black"/>
<path d="M46.1 8.05974C46.0981 8.22811 46.0595 8.39405 45.987 8.54601C45.9144 8.69798 45.8097 8.83233 45.68 8.93974L43.17 10.8597C42.92 11.0597 42.76 10.9597 42.76 10.6197V9.34974C42.7605 9.18016 42.7963 9.01254 42.8652 8.85758C42.934 8.70262 43.0344 8.56371 43.16 8.44974L44.27 7.54974L43.16 6.63974C43.0357 6.5269 42.936 6.38961 42.8672 6.23647C42.7983 6.08333 42.7619 5.91763 42.76 5.74974V4.46974C42.76 4.12974 42.92 4.03974 43.17 4.22974L45.68 6.14974C45.8064 6.25342 45.9093 6.38287 45.9817 6.52944C46.0541 6.67601 46.0944 6.83634 46.1 6.99974V8.05974Z" fill="black"/>
</g>
<defs>
<clipPath id="clip0_214_912">
<rect width="52.37" height="15.24" fill="white"/>
</clipPath>
</defs>
</svg>
