<svg width="167" height="22" viewBox="0 0 167 22" fill="none" xmlns="http://www.w3.org/2000/svg">
<path d="M0.0927734 22V0H4.66567V8.70435L12.4142 0H16.7013L17.1459 0.92464L9.87369 9.05507L17.9398 21.0754L17.527 22H13.3034L6.92036 12.371L4.66567 14.8261V22H0.0927734ZM20.4367 22V0H31.1068C34.6635 0 36.4418 1.78551 36.4418 5.35652V8.99131C36.4418 11.6483 35.4574 13.3063 33.4885 13.9652L37.0769 21.0435L36.5371 22H32.5993L28.725 14.3478H25.0096V22H20.4367ZM25.0096 10.2029H30.9162C31.5513 10.2029 31.8689 9.88406 31.8689 9.24638V5.10145C31.8689 4.46377 31.5513 4.14493 30.9162 4.14493H25.0096V10.2029ZM38.3214 0.860872L38.9565 0H42.7037L46.2287 17.8551H46.578L50.357 2.10435H54.8664L58.6454 17.8551H58.9947L62.5196 0H66.2669L66.902 0.860872L62.6149 22H55.3427L52.6117 10.3623L49.8806 22H42.6085L38.3214 0.860872ZM67.5626 4.14493V0H85.4731V4.14493H78.8043V22H74.2314V4.14493H67.5626ZM87.5391 16.6435V5.35652C87.5391 1.78551 89.3174 0 92.8741 0H100.114C103.671 0 105.449 1.78551 105.449 5.35652V16.6435C105.449 20.2145 103.671 22 100.114 22H92.8741C89.3174 22 87.5391 20.2145 87.5391 16.6435ZM92.112 16.8986C92.112 17.5362 92.4295 17.8551 93.0646 17.8551H99.9237C100.559 17.8551 100.876 17.5362 100.876 16.8986V5.10145C100.876 4.46377 100.559 4.14493 99.9237 4.14493H93.0646C92.4295 4.14493 92.112 4.46377 92.112 5.10145V16.8986ZM109.348 22V0H113.921V8.70435L121.67 0H125.957L126.401 0.92464L119.129 9.05507L127.195 21.0754L126.783 22H122.559L116.176 12.371L113.921 14.8261V22H109.348ZM129.692 22V0H144.681V4.14493H134.265V8.6087H143.728V12.7536H134.265V17.8551H144.681V22H129.692ZM147.865 22V0H152.819L161.52 14.4435V0H166.093V22H161.139L152.438 7.55652V22H147.865Z" fill="white"/>
</svg>
