<svg width="26" height="26" viewBox="0 0 26 26" fill="none" xmlns="http://www.w3.org/2000/svg">
<path d="M11.4929 3.18306C12.04 1.827 13.9598 1.827 14.5069 3.18306L16.6056 8.38536C16.6823 8.5754 16.8596 8.70591 17.0639 8.72258L22.3356 9.15273C23.7649 9.26936 24.3535 11.0454 23.2766 11.9925L19.2764 15.5108C19.1283 15.6411 19.0627 15.8414 19.1051 16.034L20.3843 21.8483C20.7038 23.3007 19.0662 24.3838 17.8547 23.5212L13.3141 20.2882C13.126 20.1543 12.8738 20.1543 12.6857 20.2882L8.14511 23.5212C6.93367 24.3838 5.29601 23.3007 5.61555 21.8483L6.89472 16.034C6.93709 15.8414 6.87148 15.6411 6.72343 15.5108L2.72308 11.9926C1.64618 11.0454 2.23471 9.26936 3.6641 9.15273L8.93593 8.72258C9.14018 8.70591 9.31754 8.5754 9.39421 8.38536L11.4929 3.18306Z" fill="#DCDCDC"/>
</svg>
